<?xml version="1.0" encoding="iso-8859-1"?>
<!-- Generator: Adobe Illustrator 22.1.0, SVG Export Plug-In . SVG Version: 6.00 Build 0)  -->
<svg version="1.1" xmlns="http://www.w3.org/2000/svg" xmlns:xlink="http://www.w3.org/1999/xlink" x="0px" y="0px"
	 viewBox="0 0 64 64" style="enable-background:new 0 0 64 64;" xml:space="preserve">
<g id="_x31_8">
	<path style="fill:#71A9D3;" d="M62.038,20.945H1.962C6.463,8.72,18.213,0,32,0S57.537,8.72,62.038,20.945z M32,64
		c13.787,0,25.537-8.72,30.038-20.945H1.962C6.463,55.28,18.213,64,32,64z"/>
	<path style="fill:#FFFFFF;" d="M0,32c0,3.886,0.694,7.609,1.962,11.055h60.076C63.306,39.609,64,35.886,64,32
		s-0.694-7.609-1.962-11.055H1.962C0.694,24.391,0,28.114,0,32z M22.958,31.887l5.367-0.205c0.002-0.029,0.005-0.059,0.008-0.088
		c-0.801-0.282-1.354-0.012-2.389-0.538c-1.222-0.621-1.571-0.263-2.17-0.411c-0.606-0.165-0.824-0.542-0.712-0.639
		c0.112-0.097,0.228,0.281,0.683,0.326c0.465,0.02,1.275-0.305,2.276,0.225c0.809,0.417,1.576,0.199,2.443,0.386
		c0.006-0.019,0.011-0.038,0.017-0.056l-4.886-2.245c0,0-0.15-0.056-0.113-0.169c0.047-0.103,0.206-0.038,0.206-0.038l5.037,1.864
		c0.014-0.026,0.027-0.052,0.041-0.078c-0.632-0.567-1.246-0.528-2.001-1.411c-0.891-1.041-1.351-0.844-1.848-1.21
		c-0.497-0.385-0.553-0.816-0.413-0.863c0.141-0.047,0.103,0.347,0.507,0.563c0.422,0.197,1.294,0.206,2.017,1.079
		c0.588,0.695,1.38,0.787,2.11,1.292c0.012-0.015,0.025-0.03,0.038-0.045l-3.656-3.945c0,0-0.117-0.109-0.039-0.199
		c0.083-0.077,0.205,0.044,0.205,0.044l3.94,3.65c0.023-0.019,0.045-0.037,0.068-0.056c-0.367-0.766-0.949-0.966-1.309-2.07
		c-0.425-1.303-0.925-1.297-1.244-1.825c-0.312-0.546-0.199-0.966-0.051-0.955c0.148,0.011-0.038,0.36,0.253,0.714
		c0.315,0.344,1.117,0.686,1.45,1.768c0.277,0.866,0.974,1.255,1.454,2.001c0.017-0.009,0.035-0.018,0.052-0.027l-1.868-5.044
		c0,0-0.066-0.146,0.04-0.199c0.106-0.04,0.172,0.119,0.172,0.119l2.243,4.879c0.028-0.009,0.057-0.017,0.085-0.025
		c-0.046-0.848-0.507-1.255-0.417-2.413c0.106-1.366-0.358-1.552-0.451-2.162c-0.08-0.623,0.186-0.968,0.318-0.902
		c0.133,0.066-0.172,0.318-0.04,0.756c0.159,0.438,0.769,1.061,0.663,2.189c-0.076,0.906,0.419,1.532,0.578,2.405
		c0.019-0.002,0.039-0.003,0.059-0.004l0.205-5.375c0,0-0.005-0.16,0.113-0.169c0.113,0.004,0.114,0.176,0.114,0.176l0.205,5.367
		c0.029,0.002,0.059,0.005,0.088,0.008c0.282-0.801,0.012-1.354,0.538-2.389c0.621-1.222,0.263-1.571,0.411-2.17
		c0.165-0.606,0.542-0.824,0.639-0.712c0.097,0.112-0.281,0.228-0.326,0.683c-0.02,0.465,0.305,1.275-0.225,2.276
		c-0.417,0.809-0.199,1.576-0.386,2.443c0.019,0.006,0.038,0.011,0.056,0.017l2.245-4.886c0,0,0.056-0.15,0.169-0.113
		c0.103,0.047,0.038,0.206,0.038,0.206L33.7,28.726c0.026,0.014,0.052,0.027,0.078,0.041c0.567-0.632,0.528-1.246,1.411-2.001
		c1.041-0.891,0.844-1.351,1.21-1.848c0.385-0.497,0.816-0.553,0.863-0.413c0.047,0.141-0.347,0.103-0.563,0.507
		c-0.197,0.422-0.206,1.294-1.079,2.017c-0.695,0.588-0.787,1.38-1.292,2.11c0.015,0.012,0.03,0.025,0.045,0.038l3.945-3.656
		c0,0,0.109-0.117,0.199-0.039c0.077,0.083-0.044,0.205-0.044,0.205l-3.65,3.94c0.019,0.022,0.037,0.045,0.056,0.068
		c0.766-0.367,0.966-0.949,2.07-1.309c1.303-0.425,1.297-0.925,1.825-1.244c0.546-0.312,0.966-0.199,0.955-0.051
		c-0.011,0.148-0.36-0.037-0.714,0.253c-0.344,0.315-0.686,1.117-1.768,1.45c-0.866,0.277-1.255,0.974-2.001,1.454
		c0.009,0.017,0.018,0.035,0.027,0.052l5.044-1.868c0,0,0.146-0.066,0.199,0.04c0.04,0.106-0.119,0.172-0.119,0.172l-4.879,2.243
		c0.009,0.028,0.017,0.057,0.025,0.085c0.848-0.046,1.255-0.507,2.413-0.417c1.366,0.106,1.552-0.358,2.162-0.451
		c0.623-0.08,0.968,0.186,0.902,0.318c-0.066,0.133-0.318-0.172-0.756-0.04c-0.438,0.159-1.061,0.769-2.189,0.663
		c-0.906-0.076-1.532,0.419-2.405,0.578c0.002,0.019,0.003,0.039,0.004,0.059l5.375,0.205c0,0,0.16-0.005,0.169,0.113
		c-0.004,0.113-0.176,0.114-0.176,0.114l-5.367,0.205c-0.002,0.029-0.005,0.059-0.008,0.088c0.801,0.282,1.354,0.012,2.389,0.538
		c1.222,0.621,1.571,0.263,2.17,0.411c0.606,0.165,0.824,0.542,0.712,0.639c-0.112,0.097-0.228-0.281-0.683-0.326
		c-0.465-0.02-1.275,0.305-2.276-0.225c-0.809-0.417-1.576-0.199-2.443-0.386c-0.006,0.019-0.011,0.038-0.017,0.056l4.886,2.245
		c0,0,0.15,0.056,0.113,0.169c-0.047,0.103-0.206,0.038-0.206,0.038L35.274,33.7c-0.014,0.026-0.027,0.052-0.041,0.078
		c0.632,0.567,1.246,0.529,2.001,1.411c0.891,1.041,1.351,0.844,1.848,1.21c0.497,0.385,0.553,0.816,0.413,0.863
		c-0.141,0.047-0.103-0.347-0.507-0.563c-0.422-0.197-1.294-0.206-2.017-1.079c-0.588-0.695-1.38-0.787-2.11-1.292
		c-0.012,0.015-0.025,0.03-0.038,0.045l3.656,3.945c0,0,0.117,0.109,0.039,0.199c-0.083,0.077-0.205-0.044-0.205-0.044l-3.94-3.65
		c-0.023,0.019-0.045,0.037-0.068,0.056c0.367,0.766,0.949,0.966,1.309,2.07c0.425,1.303,0.925,1.297,1.244,1.825
		c0.312,0.546,0.199,0.966,0.051,0.955c-0.148-0.011,0.038-0.36-0.253-0.714c-0.315-0.344-1.117-0.686-1.45-1.768
		c-0.277-0.866-0.974-1.255-1.454-2.001c-0.017,0.009-0.035,0.018-0.052,0.027l1.868,5.044c0,0,0.066,0.146-0.04,0.199
		c-0.106,0.04-0.172-0.119-0.172-0.119l-2.243-4.879c-0.028,0.009-0.057,0.017-0.085,0.025c0.046,0.848,0.507,1.255,0.417,2.413
		c-0.106,1.366,0.358,1.552,0.451,2.162c0.08,0.623-0.186,0.968-0.318,0.902c-0.133-0.066,0.172-0.318,0.04-0.756
		c-0.159-0.438-0.769-1.061-0.663-2.189c0.076-0.906-0.419-1.532-0.578-2.405c-0.019,0.002-0.039,0.003-0.059,0.004l-0.205,5.375
		c0,0,0.005,0.16-0.113,0.169c-0.113-0.004-0.114-0.176-0.114-0.176l-0.205-5.367c-0.029-0.003-0.059-0.005-0.088-0.008
		c-0.282,0.801-0.012,1.354-0.538,2.389c-0.621,1.222-0.263,1.571-0.411,2.17c-0.165,0.606-0.542,0.824-0.639,0.712
		c-0.097-0.112,0.281-0.228,0.326-0.683c0.02-0.465-0.305-1.275,0.225-2.276c0.417-0.809,0.199-1.576,0.386-2.443
		c-0.019-0.006-0.038-0.011-0.056-0.017l-2.245,4.886c0,0-0.056,0.15-0.169,0.113c-0.103-0.047-0.038-0.206-0.038-0.206l1.864-5.037
		c-0.026-0.014-0.052-0.027-0.078-0.041c-0.567,0.632-0.528,1.246-1.411,2.001c-1.041,0.891-0.844,1.351-1.21,1.848
		c-0.385,0.497-0.816,0.553-0.863,0.413c-0.047-0.141,0.347-0.103,0.563-0.507c0.197-0.422,0.206-1.294,1.079-2.017
		c0.695-0.588,0.787-1.38,1.292-2.11c-0.015-0.012-0.03-0.025-0.045-0.038l-3.945,3.656c0,0-0.109,0.117-0.199,0.039
		c-0.077-0.083,0.044-0.205,0.044-0.205l3.65-3.94c-0.019-0.023-0.037-0.045-0.056-0.068c-0.766,0.367-0.966,0.949-2.07,1.309
		c-1.303,0.425-1.297,0.925-1.825,1.244c-0.546,0.312-0.966,0.199-0.955,0.051s0.36,0.038,0.714-0.253
		c0.344-0.315,0.686-1.117,1.768-1.45c0.866-0.277,1.255-0.974,2.001-1.454c-0.009-0.017-0.018-0.035-0.027-0.052l-5.044,1.868
		c0,0-0.146,0.066-0.199-0.04c-0.04-0.106,0.119-0.172,0.119-0.172l4.879-2.243c-0.009-0.028-0.017-0.057-0.025-0.085
		c-0.848,0.046-1.255,0.507-2.413,0.417c-1.366-0.106-1.552,0.358-2.162,0.451c-0.623,0.08-0.968-0.186-0.902-0.318
		c0.066-0.133,0.318,0.172,0.756,0.04c0.438-0.159,1.061-0.769,2.189-0.663c0.906,0.076,1.532-0.419,2.405-0.578
		c-0.002-0.019-0.003-0.039-0.004-0.059l-5.375-0.205c0,0-0.16,0.005-0.169-0.113C22.785,31.888,22.958,31.887,22.958,31.887z"/>
	<path style="fill:#F6B40E;" d="M41.05,31.886l-5.375-0.205c-0.002-0.019-0.002-0.039-0.004-0.059
		c0.873-0.159,1.499-0.654,2.405-0.578c1.128,0.106,1.751-0.504,2.189-0.663c0.438-0.133,0.69,0.172,0.756,0.04
		c0.066-0.133-0.279-0.398-0.902-0.318c-0.61,0.093-0.796,0.557-2.162,0.451c-1.158-0.09-1.565,0.371-2.413,0.417
		c-0.008-0.028-0.016-0.057-0.025-0.085l4.879-2.243c0,0,0.159-0.066,0.119-0.172c-0.053-0.106-0.199-0.04-0.199-0.04l-5.044,1.868
		c-0.009-0.017-0.017-0.035-0.027-0.052c0.746-0.481,1.134-1.177,2.001-1.454c1.082-0.333,1.425-1.136,1.768-1.45
		c0.354-0.29,0.703-0.105,0.714-0.253c0.011-0.148-0.41-0.261-0.955,0.051c-0.528,0.319-0.522,0.819-1.825,1.244
		c-1.105,0.36-1.304,0.942-2.07,1.309c-0.018-0.023-0.037-0.046-0.056-0.068l3.65-3.94c0,0,0.122-0.122,0.044-0.205
		c-0.09-0.078-0.199,0.039-0.199,0.039l-3.945,3.656c-0.015-0.013-0.03-0.025-0.045-0.038c0.505-0.73,0.598-1.522,1.292-2.11
		c0.872-0.722,0.882-1.595,1.079-2.017c0.216-0.403,0.61-0.366,0.563-0.507c-0.047-0.141-0.478-0.084-0.863,0.413
		c-0.366,0.497-0.169,0.957-1.21,1.848c-0.882,0.755-0.844,1.369-1.411,2.001c-0.026-0.014-0.052-0.028-0.078-0.041l1.864-5.037
		c0,0,0.066-0.159-0.038-0.206c-0.113-0.038-0.169,0.113-0.169,0.113l-2.245,4.886c-0.019-0.006-0.038-0.011-0.056-0.017
		c0.188-0.867-0.03-1.635,0.386-2.443c0.53-1.001,0.204-1.811,0.225-2.276c0.045-0.455,0.423-0.571,0.326-0.683
		c-0.097-0.112-0.474,0.105-0.639,0.712c-0.148,0.599,0.21,0.949-0.411,2.17c-0.526,1.036-0.256,1.588-0.538,2.389
		c-0.029-0.003-0.059-0.006-0.088-0.008l-0.205-5.367c0,0,0-0.172-0.114-0.176c-0.118,0.008-0.113,0.169-0.113,0.169l-0.205,5.375
		c-0.019,0.002-0.039,0.002-0.059,0.004c-0.159-0.873-0.654-1.499-0.578-2.405c0.106-1.128-0.504-1.751-0.663-2.189
		c-0.133-0.438,0.172-0.69,0.04-0.756c-0.133-0.066-0.398,0.279-0.318,0.902c0.093,0.61,0.557,0.796,0.451,2.162
		c-0.09,1.158,0.371,1.565,0.417,2.413c-0.028,0.008-0.057,0.016-0.085,0.025l-2.243-4.879c0,0-0.066-0.159-0.172-0.119
		c-0.106,0.053-0.04,0.199-0.04,0.199l1.868,5.044c-0.017,0.009-0.035,0.017-0.052,0.027c-0.481-0.746-1.177-1.134-1.454-2.001
		c-0.333-1.082-1.136-1.425-1.45-1.768c-0.29-0.354-0.105-0.703-0.253-0.714c-0.148-0.011-0.261,0.41,0.051,0.955
		c0.319,0.528,0.819,0.522,1.244,1.825c0.36,1.105,0.942,1.304,1.309,2.07c-0.023,0.018-0.046,0.037-0.068,0.056l-3.94-3.65
		c0,0-0.122-0.122-0.205-0.044c-0.078,0.09,0.039,0.199,0.039,0.199l3.656,3.945c-0.013,0.015-0.025,0.03-0.038,0.045
		c-0.73-0.505-1.522-0.598-2.11-1.292c-0.722-0.872-1.595-0.882-2.017-1.079c-0.403-0.216-0.366-0.61-0.507-0.563
		c-0.141,0.047-0.084,0.478,0.413,0.863c0.497,0.366,0.957,0.169,1.848,1.21c0.755,0.882,1.369,0.844,2.001,1.411
		c-0.014,0.026-0.028,0.052-0.041,0.078l-5.037-1.864c0,0-0.159-0.066-0.206,0.038c-0.038,0.113,0.113,0.169,0.113,0.169
		l4.886,2.245c-0.006,0.019-0.011,0.038-0.017,0.056c-0.867-0.188-1.635,0.03-2.443-0.386c-1.001-0.53-1.811-0.204-2.276-0.225
		c-0.455-0.045-0.571-0.423-0.683-0.326c-0.112,0.097,0.105,0.474,0.712,0.639c0.599,0.148,0.949-0.21,2.17,0.411
		c1.036,0.526,1.588,0.256,2.389,0.538c-0.003,0.029-0.006,0.059-0.008,0.088l-5.367,0.205c0,0-0.172,0-0.176,0.114
		c0.008,0.118,0.169,0.113,0.169,0.113l5.375,0.205c0.002,0.019,0.002,0.039,0.004,0.059c-0.873,0.159-1.499,0.654-2.405,0.578
		c-1.128-0.106-1.751,0.504-2.189,0.663c-0.438,0.133-0.69-0.172-0.756-0.04c-0.066,0.133,0.279,0.398,0.902,0.318
		c0.61-0.093,0.796-0.557,2.162-0.451c1.158,0.09,1.565-0.371,2.413-0.417c0.008,0.028,0.016,0.057,0.025,0.085l-4.879,2.243
		c0,0-0.159,0.066-0.119,0.172c0.053,0.106,0.199,0.04,0.199,0.04l5.044-1.868c0.009,0.017,0.017,0.035,0.027,0.052
		c-0.746,0.481-1.134,1.177-2.001,1.454c-1.082,0.333-1.425,1.136-1.768,1.45c-0.354,0.29-0.703,0.105-0.714,0.253
		s0.41,0.261,0.955-0.051c0.528-0.319,0.522-0.819,1.825-1.244c1.105-0.36,1.304-0.942,2.07-1.309
		c0.018,0.023,0.037,0.046,0.056,0.068l-3.65,3.94c0,0-0.122,0.122-0.044,0.205c0.09,0.078,0.199-0.039,0.199-0.039l3.945-3.656
		c0.015,0.013,0.03,0.025,0.045,0.038c-0.505,0.73-0.598,1.522-1.292,2.11c-0.872,0.722-0.882,1.595-1.079,2.017
		c-0.216,0.403-0.61,0.366-0.563,0.507c0.047,0.141,0.478,0.084,0.863-0.413c0.366-0.497,0.169-0.957,1.21-1.848
		c0.882-0.755,0.844-1.369,1.411-2.001c0.026,0.014,0.052,0.028,0.078,0.041l-1.864,5.037c0,0-0.066,0.159,0.038,0.206
		c0.113,0.037,0.169-0.113,0.169-0.113l2.245-4.886c0.019,0.006,0.038,0.011,0.056,0.017c-0.188,0.867,0.03,1.635-0.386,2.443
		c-0.53,1.001-0.204,1.811-0.225,2.276c-0.045,0.455-0.423,0.571-0.326,0.683c0.097,0.112,0.474-0.105,0.639-0.712
		c0.148-0.599-0.21-0.949,0.411-2.17c0.526-1.036,0.256-1.588,0.538-2.389c0.029,0.003,0.059,0.006,0.088,0.008l0.205,5.367
		c0,0,0,0.172,0.114,0.176c0.118-0.008,0.113-0.169,0.113-0.169l0.205-5.375c0.019-0.002,0.039-0.002,0.059-0.004
		c0.159,0.873,0.654,1.499,0.578,2.405c-0.106,1.128,0.504,1.751,0.663,2.189c0.133,0.438-0.172,0.69-0.04,0.756
		c0.133,0.066,0.398-0.279,0.318-0.902c-0.093-0.61-0.557-0.796-0.451-2.162c0.09-1.158-0.371-1.565-0.417-2.413
		c0.028-0.008,0.057-0.016,0.085-0.025l2.243,4.879c0,0,0.066,0.159,0.172,0.119c0.106-0.053,0.04-0.199,0.04-0.199l-1.868-5.044
		c0.017-0.009,0.035-0.018,0.052-0.027c0.481,0.746,1.177,1.134,1.454,2.001c0.333,1.082,1.136,1.425,1.45,1.768
		c0.29,0.354,0.105,0.703,0.253,0.714c0.148,0.011,0.261-0.41-0.051-0.955c-0.319-0.528-0.819-0.522-1.244-1.825
		c-0.36-1.105-0.942-1.304-1.309-2.07c0.023-0.018,0.046-0.037,0.068-0.056l3.94,3.65c0,0,0.122,0.122,0.205,0.044
		c0.078-0.09-0.039-0.199-0.039-0.199l-3.656-3.945c0.013-0.015,0.025-0.03,0.038-0.045c0.73,0.505,1.522,0.598,2.11,1.292
		c0.722,0.872,1.595,0.882,2.017,1.079c0.403,0.216,0.366,0.61,0.507,0.563c0.141-0.047,0.084-0.478-0.413-0.863
		c-0.497-0.366-0.957-0.169-1.848-1.21c-0.755-0.882-1.369-0.844-2.001-1.411c0.014-0.026,0.028-0.052,0.041-0.078l5.037,1.864
		c0,0,0.159,0.066,0.206-0.038c0.038-0.113-0.113-0.169-0.113-0.169l-4.886-2.245c0.006-0.019,0.011-0.038,0.017-0.056
		c0.867,0.188,1.635-0.03,2.443,0.386c1.001,0.53,1.811,0.204,2.276,0.225c0.455,0.045,0.571,0.423,0.683,0.326
		c0.112-0.097-0.105-0.474-0.712-0.639c-0.599-0.148-0.949,0.21-2.17-0.411c-1.036-0.526-1.588-0.256-2.389-0.538
		c0.003-0.029,0.006-0.059,0.008-0.088l5.367-0.205c0,0,0.172,0,0.176-0.114C41.21,31.881,41.05,31.886,41.05,31.886z
		 M29.617,37.741l0.882-2.37c0.057,0.025,0.114,0.049,0.172,0.072L29.617,37.741z"/>
</g>
<g id="Layer_1">
</g>
</svg>
