<svg xmlns="http://www.w3.org/2000/svg" viewBox="0 0 64 64" style="enable-background:new 0 0 64 64" xml:space="preserve"><path style="fill:#ead11f" d="M.087 29.758A32.614 32.614 0 0 0 0 32c0 .802.04 1.595.098 2.382l32.066 20.58 31.74-20.602c.057-.78.096-1.565.096-2.36 0-.767-.037-1.526-.09-2.28L31.953 9.037.087 29.758zM49.956 32c0 1.202-.124 2.376-.36 3.509l.008.007c-.039.189-.094.374-.14.562-.027.11-.053.221-.082.331a16.868 16.868 0 0 1-.562 1.785l-.014-.013c-2.489 6.452-8.756 11.033-16.103 11.033-9.514-.015-17.214-7.739-17.199-17.253.003-1.718.26-3.375.731-4.94a.947.947 0 0 1-.055.004c.297-.975.681-1.921 1.149-2.826l.038-.002c2.849-5.607 8.671-9.447 15.39-9.436 9.509.014 17.207 7.731 17.199 17.239z"/><path style="fill:#325db2" d="M16.235 27.02a17.25 17.25 0 0 0-.731 4.94c-.015 9.514 7.685 17.238 17.199 17.253 7.348 0 13.614-4.581 16.103-11.033-6.134-5.859-17.332-12.598-32.571-11.16zm2.149 11.416-.365-.203-.189.091-.176.085.068-.338.014-.068-.284-.297.406-.054.189-.365.176.379.406.081-.311.27.066.419zm.244-8.694-.541.27.135-.622-.446-.446.622-.068.27-.554.27.568.595.108-.446.419.081.622-.54-.297zm13.534 7.991.297-.041.135-.27.135.27.297.068-.216.203.041.311-.27-.149-.27.135.068-.311-.217-.216zm1.15 7.937-.216-.122-.243.122.054-.27-.177-.19.257-.027.122-.23.108.243.257.041-.189.176.027.257zm8.748-.27-.325-.189-.325.176.081-.379-.257-.27.365-.054.162-.338.149.352.365.068-.27.27.055.364zm3.326-5.314-.297-.149-.297.135.068-.311-.23-.216.325-.041.162-.27.135.27.338.068-.257.203.053.311zm1.555-2.164.135-.27.135.284.284.054-.216.216.041.297-.27-.135-.27.135.068-.311-.216-.23.309-.04zm-2.312-.027.243-.473.216.487.514.095-.392.352.081.527-.46-.27-.473.243.108-.527-.365-.379.528-.055zm-.203 2.88.189-.365.176.379.406.081-.311.27.054.419-.352-.203-.365.189.081-.406-.284-.311.406-.053zm-1.406.528.149-.27.135.27.311.068-.23.216.041.325-.27-.162-.284.135.054-.311-.216-.23.31-.041zm-1.379-.014.162-.311.135.325.338.054-.257.243.054.352-.297-.189-.311.162.068-.352-.23-.243.338-.041zm-.095 1.852.176-.338.162.352.406.068-.311.257.054.379-.338-.189-.365.162.081-.379-.27-.27.405-.042zm-2.488-1.811.135-.27.135.27.297.054-.215.216.027.311-.257-.162-.27.135.054-.297-.203-.23.297-.027zm-.69 2.758.595.108-.46.419.081.622-.527-.311-.541.27.108-.608-.419-.446.608-.068.284-.554.271.568zm-1.243-12.859.203-.379.176.406.406.068-.297.297.054.433-.367-.216-.392.189.081-.433-.297-.311.433-.054zm-.501 10.101.135-.27.135.27.284.054-.216.216.041.311-.27-.162-.27.135.068-.297-.216-.23.309-.027zm-2.041-5.22.189-.365.162.379.406.068-.297.284.054.419-.352-.216-.379.189.081-.406-.27-.311.406-.041zm-.974 4.449-.46-.27-.473.243.108-.527-.379-.392.541-.054.243-.487.216.5.527.095-.406.365.083.527zm-.987-6.341.284-.554.27.568.595.108-.46.433.095.608-.541-.297-.541.27.108-.622-.419-.446.609-.068zm-1.487 1.892.189-.379.162.392.406.068-.297.284.054.406-.365-.203-.365.189.081-.406-.27-.311.405-.04zm-4.882-3.583.297-.541.257.568.595.108-.446.419.081.622-.541-.311-.541.27.122-.608-.433-.446.609-.081zm0 8.613.297-.541.257.568.595.108-.446.406.081.636-.541-.311-.541.27.122-.608-.433-.46.609-.068zm-2.731-3.488.189-.365.176.379.406.068-.311.284.054.406-.352-.189-.365.176.081-.406-.284-.297.406-.056zm-.514 1.514.176.379.406.081-.311.27.054.419-.352-.203-.365.189.081-.406-.284-.311.406-.054.189-.364zm-1.041-3.975.108-.23.108.243.257.041-.189.176.041.27-.23-.135-.23.108.054-.257-.176-.189.257-.027zm-1.311.811.595.108-.446.419.081.622-.541-.311-.541.27.122-.608-.433-.446.608-.081.284-.541.271.568zm-3.289-11.805c12.877-.841 23.073 3.28 32.229 11.312a17.26 17.26 0 0 0 .36-3.509c.007-9.508-7.691-17.225-17.199-17.24-6.719-.01-12.541 3.83-15.39 9.437zm20.582 2.192.257-.487.23.514.541.095-.406.365.081.554-.487-.27-.487.243.108-.541-.379-.406.542-.067z"/><path style="fill:#249338" d="M63.91 29.72 31.953 9.037.087 29.758C1.239 13.132 15.081 0 32 0c16.906 0 30.74 13.112 31.91 29.72zM.098 34.382C1.318 50.942 15.129 64 32 64c16.878 0 30.694-13.07 31.904-29.639l-31.74 20.602L.098 34.382zm41.137-2.247 1.217.744.162-.27-.906-.541.27-.446.811.5.176-.27-.811-.5.216-.365.865.541.162-.27-1.19-.744-.987 1.623h.015zm2.245.69a.46.46 0 0 0-.027.297c.035.093.102.17.189.216.108.068.189.095.27.081.081 0 .135-.041.176-.108.02-.032.03-.07.027-.108a.211.211 0 0 0-.068-.135 4.161 4.161 0 0 0-.216-.243c-.149-.149-.243-.27-.27-.379a.5.5 0 0 1 .27-.608.514.514 0 0 1 .297-.041.95.95 0 0 1 .352.135c.203.135.325.27.365.419.05.154.03.322-.054.46l-.338-.189c.041-.095.054-.162.027-.23a.382.382 0 0 0-.176-.189.431.431 0 0 0-.257-.081.133.133 0 0 0-.108.068c-.027.041-.027.081-.014.135.014.054.095.162.23.297.135.135.23.243.27.325a.526.526 0 0 1 0 .568.564.564 0 0 1-.243.216.542.542 0 0 1-.325.041 1.087 1.087 0 0 1-.392-.149.813.813 0 0 1-.379-.433.731.731 0 0 1 .054-.541l.34.176zm-17.727-6.098-1.433-.135.176-1.893 1.393.135-.027.325-1.014-.095-.041.406.946.095-.041.325-.946-.095-.041.514 1.055.095-.027.323zm19.268 7.125a.463.463 0 0 0-.041.297c.032.098.099.18.189.23.095.068.189.108.27.095a.213.213 0 0 0 .176-.095.175.175 0 0 0 .027-.122.304.304 0 0 0-.068-.135 1.64 1.64 0 0 0-.203-.243 1.047 1.047 0 0 1-.243-.406.5.5 0 0 1 .27-.595.517.517 0 0 1 .311-.027.958.958 0 0 1 .352.162c.189.135.311.27.352.433a.554.554 0 0 1-.081.446l-.325-.203c.041-.081.054-.162.027-.23-.014-.068-.068-.135-.162-.189a.431.431 0 0 0-.243-.095.134.134 0 0 0-.122.068c-.027.041-.027.081-.013.135.013.054.081.162.216.297.135.135.216.257.27.338a.525.525 0 0 1-.041.568.552.552 0 0 1-.257.203.542.542 0 0 1-.325.041 1.048 1.048 0 0 1-.379-.176c-.203-.135-.325-.284-.365-.446a.731.731 0 0 1 .081-.541l.014.014.313.176zm-18.443-6.977-.352-.054.27-1.893.568.095.149 1.325.527-1.217.568.081-.27 1.866-.365-.054.23-1.474-.595 1.42-.365-.054-.149-1.528-.216 1.487zm11.128 3.273a.81.81 0 0 1-.135-.473c.007-.175.053-.346.135-.5.081-.163.202-.302.352-.406a.838.838 0 0 1 .487-.149c.135 0 .27.041.433.135.216.095.352.23.419.379.07.148.085.316.041.473l-.365-.108a.405.405 0 0 0-.027-.27c-.041-.081-.108-.135-.216-.189a.513.513 0 0 0-.419-.041c-.135.041-.257.162-.352.352-.095.189-.135.365-.095.514a.502.502 0 0 0 .27.325.454.454 0 0 0 .23.068.825.825 0 0 0 .243 0l.108-.216-.392-.203.149-.27.73.365-.338.676a1.236 1.236 0 0 1-.852-.108 1.077 1.077 0 0 1-.406-.354zm-18.768-5.706c-.135 0-.27.027-.406.068a.9.9 0 0 0-.432.419 1.247 1.247 0 0 0-.095.487.99.99 0 0 0 .23.717.89.89 0 0 0 .649.27.876.876 0 0 0 .676-.23c.176-.176.27-.419.27-.717a1 1 0 0 0-.216-.744.96.96 0 0 0-.676-.27zm.352 1.487a.473.473 0 0 1-.379.149.485.485 0 0 1-.379-.176c-.095-.122-.135-.284-.135-.487.014-.216.054-.379.162-.487a.488.488 0 0 1 .379-.162.471.471 0 0 1 .365.176c.108.108.135.27.135.487-.013.23-.053.392-.148.5zm1.339-.325h.081a.67.67 0 0 1 .189.027.288.288 0 0 1 .122.081l.189.27.27.433h.46l-.23-.379a1.517 1.517 0 0 0-.203-.311l-.203-.162a.608.608 0 0 0 .365-.162.513.513 0 0 0 .135-.352.56.56 0 0 0-.081-.311.398.398 0 0 0-.216-.176 1.097 1.097 0 0 0-.433-.068h-.811l-.027 1.893h.392v-.783zm.013-.311v-.473l.311.013h.27c.054.014.108.041.135.081.041.027.054.081.054.162 0 .041-.014.108-.041.135-.027.027-.068.068-.108.068-.041.027-.162.027-.352.027h-.27v-.013zm2.718 1.204a.668.668 0 0 0 .27-.135.82.82 0 0 0 .23-.325c.045-.131.068-.268.068-.406.014-.176 0-.325-.041-.446a.816.816 0 0 0-.162-.325.633.633 0 0 0-.27-.189 1.191 1.191 0 0 0-.352-.041l-.703-.04-.095 1.893.717.041c.135 0 .257 0 .338-.027zm-.595-1.569h.176c.105.004.209.018.311.041a.37.37 0 0 1 .162.095.427.427 0 0 1 .108.189c.014.081.014.189.014.338 0 .149-.027.27-.054.352a.446.446 0 0 1-.108.176.224.224 0 0 1-.162.068h-.514l.067-1.259zm9.451 2.434.23.068c.176.041.311.068.406.068a.53.53 0 0 0 .406-.189.566.566 0 0 0 .135-.27c.027-.149.027-.27-.027-.379a.46.46 0 0 0-.216-.257l-.433-.135-.595-.135-.446 1.839.379.095.161-.705zm.19-.825h.014l.176.041.257.068a.268.268 0 0 1 .135.122c.027.054.027.108.027.176a.257.257 0 0 1-.216.203c-.054.014-.162-.014-.297-.041l-.203-.054.107-.515zm1.649 1.339.068.027c.095.027.149.054.176.095a.288.288 0 0 1 .081.108c.038.106.07.214.095.325l.135.487.419.149-.081-.419-.108-.365a.719.719 0 0 0-.135-.216.658.658 0 0 0 .406-.041.598.598 0 0 0 .243-.297c.027-.108.014-.203 0-.311a.396.396 0 0 0-.135-.243 1.628 1.628 0 0 0-.406-.189l-.744-.27-.635 1.785.352.135.269-.76zm.257-.73.27.095.27.095c.05.026.088.069.108.122a.172.172 0 0 1 0 .162.202.202 0 0 1-.081.122c-.041.041-.081.041-.122.041-.054 0-.162-.027-.338-.095l-.257-.095h-.012l.162-.447zm1.934 2.488c.257.081.5.068.703-.054a1 1 0 0 0 .46-.608c.081-.297.081-.554-.027-.771a.878.878 0 0 0-.568-.446c-.149-.055-.284-.055-.42-.055a.82.82 0 0 0-.27.095.88.88 0 0 0-.243.203 1.222 1.222 0 0 0-.23.433.989.989 0 0 0 .027.757.892.892 0 0 0 .568.446zm-.217-1.095c.068-.216.162-.352.297-.433a.49.49 0 0 1 .406-.041.474.474 0 0 1 .297.27c.068.135.068.297 0 .5-.068.216-.149.365-.284.433a.484.484 0 0 1-.406.054.516.516 0 0 1-.311-.27c-.066-.135-.053-.311.001-.513zm3.651 2.704.365-.703.068.041.162.095a.28.28 0 0 1 .068.135c.021.112.034.225.041.338l.054.5.406.203-.027-.433a1.815 1.815 0 0 0-.054-.379c-.027-.068-.054-.149-.108-.23a.75.75 0 0 0 .419.027.513.513 0 0 0 .27-.27c.054-.095.054-.189.054-.297s-.041-.189-.108-.257a1.37 1.37 0 0 0-.365-.257l-.717-.365-.865 1.677.337.175zm.717-1.406.27.135c.083.042.164.087.243.135a.285.285 0 0 1 .095.135.23.23 0 0 1-.027.162c-.027.054-.054.095-.095.108-.041.027-.095.027-.135.027-.041 0-.149-.054-.311-.135l-.257-.135.217-.432zm5.76 5.422a.896.896 0 0 0 .406.595.876.876 0 0 0 .703.149.984.984 0 0 0 .608-.446c.162-.257.23-.514.189-.744a.896.896 0 0 0-.406-.595 1.037 1.037 0 0 0-.379-.162.743.743 0 0 0-.297 0 .868.868 0 0 0-.297.122 1.206 1.206 0 0 0-.338.352c-.162.242-.23.485-.189.729zm.514-.514c.135-.189.27-.297.406-.325a.44.44 0 0 1 .406.068.518.518 0 0 1 .216.352c.027.135-.027.297-.149.487-.122.189-.257.284-.392.325-.135.041-.27.013-.406-.081a.487.487 0 0 1-.216-.338c-.027-.149.014-.311.149-.487h-.014zM29.539 27.2l.311-1.325.974.23-.041.216-.717-.162-.068.297.663.149-.054.23-.663-.162-.081.365.744.176-.054.216-1.014-.23z"/></svg>