<?xml version="1.0" encoding="iso-8859-1"?>
<!-- Generator: Adobe Illustrator 22.1.0, SVG Export Plug-In . SVG Version: 6.00 Build 0)  -->
<svg version="1.1" xmlns="http://www.w3.org/2000/svg" xmlns:xlink="http://www.w3.org/1999/xlink" x="0px" y="0px"
	 viewBox="0 0 64 64" style="enable-background:new 0 0 64 64;" xml:space="preserve">
<g id="_x32_">
	<circle style="fill:#D83225;" cx="32" cy="32" r="32"/>
	<path style="fill:#EAC81F;" d="M22.056,19.53l-5.032,3.459l1.805,5.415l-4.84-3.328l-4.84,3.328l1.805-5.415L5.922,19.53h6.185
		l1.882-5.647l1.882,5.647H22.056z M28.484,11.393l-1.239,1.444l-1.851-0.846l1.06,1.768l-1.292,1.506l1.937-0.429l1.06,1.768
		l0.127-2.031l1.857-0.412l-1.781-0.814L28.484,11.393z M32.102,19.973l0.291,2.041l0.905-1.823l1.872,0.341l-1.326-1.441
		l0.871-1.754l-1.702,0.85l-1.378-1.498l0.291,2.041l-1.775,0.887L32.102,19.973z M33.814,27.615l1.51-1.246l-1.901,0.082
		l-0.647-1.93l-0.567,1.982l-1.982,0.086l1.637,1.121l-0.567,1.982l1.57-1.296l1.57,1.075L33.814,27.615z M28.337,32.133l0.148-2.03
		l-1.288,1.609l-1.862-0.687l1.077,1.666l-1.288,1.609l1.948-0.589l1.033,1.598l0.142-1.953l1.874-0.566L28.337,32.133z"/>
</g>
<g id="Layer_1">
</g>
</svg>
