<?xml version="1.0" encoding="iso-8859-1"?>
<!-- Generator: Adobe Illustrator 22.1.0, SVG Export Plug-In . SVG Version: 6.00 Build 0)  -->
<svg version="1.1" xmlns="http://www.w3.org/2000/svg" xmlns:xlink="http://www.w3.org/1999/xlink" x="0px" y="0px"
	 viewBox="0 0 64 64" style="enable-background:new 0 0 64 64;" xml:space="preserve">
<g id="_x33_">
	<path style="fill:#FFFFFF;" d="M64,32c0,4.038-0.751,7.901-2.118,11.456C57.28,55.471,45.632,64,32,64
		C18.362,64,6.72,55.471,2.112,43.456C0.745,39.901,0,36.038,0,32c0-4.09,0.768-8,2.164-11.596C6.807,8.465,18.415,0,32,0
		c13.58,0,25.187,8.465,29.83,20.404C63.232,24,64,27.91,64,32z"/>
	<path style="fill:#13139E;" d="M31.997,41.305c5.178,0,9.375-4.246,9.375-9.484s-4.197-9.484-9.375-9.484s-9.375,4.246-9.375,9.484
		S26.82,41.305,31.997,41.305z M24.587,35.384c0.209-0.093,0.307-0.338,0.22-0.553c-0.088-0.214-0.328-0.317-0.541-0.234
		c-0.072-0.206-0.136-0.415-0.192-0.628l4.827-1.014l1.536-0.623c0.027,0.085,0.061,0.166,0.101,0.244l-1.522,0.659l-4.121,2.735
		C24.785,35.779,24.682,35.584,24.587,35.384z M27.342,38.653c0.133-0.186,0.098-0.447-0.084-0.588
		c-0.181-0.141-0.439-0.109-0.582,0.069c-0.165-0.142-0.325-0.29-0.479-0.444c-0.155-0.156-0.301-0.32-0.443-0.489
		c0.176-0.145,0.208-0.406,0.068-0.589c-0.139-0.184-0.397-0.22-0.581-0.085c-0.123-0.18-0.238-0.366-0.347-0.556l4.402-2.243
		l1.325-1.004c0.048,0.074,0.101,0.144,0.16,0.209l-1.302,1.035l-3.281,3.722l3.679-3.319l1.023-1.318
		c0.065,0.059,0.133,0.113,0.206,0.161l-0.993,1.34l-2.217,4.453C27.707,38.896,27.521,38.778,27.342,38.653z M29.017,39.092
		c-0.212-0.089-0.454,0.011-0.546,0.222c-0.196-0.095-0.387-0.198-0.574-0.308l2.704-4.169l0.651-1.54
		c0.077,0.04,0.157,0.074,0.241,0.102l-0.616,1.554l-1.002,4.883c-0.212-0.057-0.421-0.122-0.626-0.196
		C29.33,39.425,29.229,39.181,29.017,39.092z M33.01,39.626c-0.226,0.03-0.386,0.237-0.364,0.465
		c-0.214,0.017-0.43,0.028-0.649,0.028c-0.221,0-0.439-0.011-0.655-0.029c0.023-0.228-0.137-0.435-0.364-0.466
		c-0.227-0.03-0.434,0.128-0.471,0.355c-0.214-0.04-0.426-0.088-0.634-0.144l1.545-4.735l0.235-1.657
		c0.084,0.018,0.171,0.028,0.259,0.033l-0.197,1.664l0.281,4.979l0.281-4.979l-0.197-1.664c0.088-0.005,0.175-0.015,0.259-0.033
		l0.235,1.657l1.546,4.736c-0.21,0.057-0.424,0.105-0.64,0.145C33.444,39.754,33.237,39.596,33.01,39.626z M35.519,39.317
		c-0.092-0.211-0.334-0.311-0.547-0.222c-0.212,0.089-0.313,0.332-0.231,0.547c-0.203,0.073-0.41,0.138-0.621,0.194l-1.002-4.883
		L32.502,33.4c0.084-0.027,0.164-0.062,0.241-0.102l0.651,1.54l2.704,4.169C35.909,39.117,35.717,39.222,35.519,39.317z
		 M38.75,36.531c-0.184-0.135-0.442-0.099-0.581,0.085c-0.139,0.183-0.107,0.444,0.068,0.589c-0.141,0.167-0.286,0.329-0.439,0.484
		c-0.155,0.156-0.317,0.305-0.483,0.449c-0.144-0.178-0.401-0.21-0.583-0.069c-0.182,0.141-0.217,0.402-0.084,0.588
		c-0.178,0.124-0.362,0.241-0.549,0.351l-2.217-4.453l-0.993-1.34c0.073-0.048,0.142-0.102,0.206-0.161l1.023,1.318l3.679,3.319
		l-3.281-3.722l-1.302-1.035c0.058-0.065,0.112-0.135,0.16-0.209l1.325,1.004L39.1,35.97C38.991,36.162,38.874,36.349,38.75,36.531z
		 M39.185,34.836c-0.088,0.215,0.011,0.459,0.219,0.553c-0.094,0.198-0.196,0.391-0.304,0.581l-4.121-2.735l-1.522-0.659
		c0.039-0.078,0.074-0.159,0.101-0.244l1.536,0.623l4.827,1.014c-0.056,0.215-0.121,0.426-0.194,0.634
		C39.514,34.519,39.273,34.622,39.185,34.836z M40.172,31.165c0.017,0.217,0.028,0.435,0.028,0.657c0,0.223-0.011,0.444-0.028,0.663
		c-0.226-0.023-0.43,0.139-0.46,0.368c-0.03,0.229,0.127,0.439,0.351,0.476c-0.039,0.217-0.087,0.431-0.142,0.641l-4.681-1.563
		l-1.638-0.238c0.018-0.085,0.028-0.173,0.032-0.262l1.645,0.2l4.922-0.284l-4.922-0.285l-1.645,0.2
		c-0.004-0.089-0.014-0.177-0.032-0.262l1.638-0.238l4.681-1.563c0.056,0.213,0.104,0.428,0.143,0.647
		c-0.225,0.037-0.381,0.246-0.352,0.476C39.742,31.026,39.947,31.187,40.172,31.165z M39.407,28.259
		c-0.209,0.093-0.307,0.338-0.22,0.553c0.088,0.214,0.328,0.317,0.541,0.234c0.072,0.206,0.136,0.415,0.192,0.628l-4.827,1.014
		l-1.536,0.623c-0.027-0.084-0.061-0.166-0.101-0.244l1.522-0.659l4.121-2.735C39.21,27.864,39.313,28.059,39.407,28.259z
		 M36.653,24.99c-0.133,0.186-0.098,0.447,0.084,0.588c0.181,0.141,0.439,0.109,0.582-0.069c0.165,0.142,0.325,0.29,0.479,0.444
		c0.155,0.156,0.301,0.32,0.443,0.489c-0.176,0.145-0.208,0.406-0.068,0.589c0.139,0.184,0.397,0.22,0.581,0.085
		c0.123,0.18,0.238,0.366,0.347,0.556l-4.402,2.243l-1.325,1.004c-0.048-0.074-0.101-0.144-0.16-0.209l1.302-1.035l3.281-3.722
		l-3.679,3.319l-1.023,1.318c-0.065-0.059-0.133-0.113-0.206-0.161l0.993-1.34l2.217-4.453
		C36.288,24.747,36.473,24.864,36.653,24.99z M34.978,24.55c0.212,0.089,0.454-0.011,0.546-0.222
		c0.196,0.095,0.387,0.198,0.574,0.308l-2.704,4.169l-0.651,1.54c-0.077-0.04-0.157-0.074-0.241-0.102l0.616-1.554l1.002-4.883
		c0.212,0.057,0.421,0.122,0.626,0.196C34.664,24.218,34.766,24.461,34.978,24.55z M30.985,24.016
		c0.226-0.03,0.386-0.237,0.364-0.465c0.214-0.017,0.43-0.028,0.649-0.028c0.221,0,0.439,0.011,0.655,0.029
		c-0.023,0.228,0.137,0.435,0.364,0.466c0.227,0.03,0.434-0.128,0.471-0.355c0.214,0.04,0.426,0.088,0.634,0.144l-1.545,4.735
		l-0.235,1.657c-0.084-0.018-0.171-0.028-0.259-0.033l0.197-1.664l-0.281-4.979l-0.281,4.979l0.197,1.664
		c-0.088,0.005-0.175,0.015-0.259,0.033l-0.235-1.657l-1.546-4.736c0.21-0.057,0.424-0.105,0.64-0.145
		C30.55,23.888,30.758,24.047,30.985,24.016z M28.476,24.325c0.092,0.211,0.334,0.311,0.547,0.222
		c0.212-0.089,0.313-0.332,0.231-0.547c0.203-0.073,0.41-0.138,0.621-0.194l1.002,4.883l0.616,1.554
		c-0.084,0.027-0.164,0.062-0.241,0.102l-0.651-1.54l-2.704-4.169C28.085,24.525,28.278,24.421,28.476,24.325z M25.244,27.112
		c0.184,0.135,0.442,0.099,0.581-0.085c0.139-0.183,0.107-0.444-0.068-0.589c0.141-0.167,0.286-0.329,0.439-0.484
		c0.155-0.156,0.317-0.305,0.483-0.448c0.144,0.178,0.401,0.21,0.583,0.069c0.182-0.141,0.217-0.402,0.084-0.588
		c0.178-0.124,0.362-0.241,0.549-0.351l2.217,4.453l0.993,1.34c-0.073,0.048-0.142,0.102-0.206,0.161l-1.023-1.318l-3.679-3.319
		l3.281,3.722l1.302,1.035c-0.058,0.065-0.112,0.135-0.16,0.209l-1.325-1.004l-4.402-2.243
		C25.004,27.481,25.12,27.294,25.244,27.112z M24.809,28.806c0.088-0.215-0.011-0.459-0.219-0.553
		c0.094-0.198,0.196-0.391,0.304-0.581l4.121,2.735l1.522,0.659c-0.039,0.078-0.074,0.159-0.101,0.244l-1.536-0.623l-4.827-1.014
		c0.056-0.215,0.121-0.426,0.194-0.634C24.481,29.123,24.721,29.02,24.809,28.806z M23.932,30.315
		c0.039-0.217,0.087-0.431,0.142-0.641l4.681,1.563l1.638,0.238c-0.018,0.085-0.028,0.173-0.032,0.262l-1.645-0.2l-4.922,0.285
		l4.922,0.284l1.645-0.2c0.004,0.089,0.014,0.177,0.032,0.262l-1.638,0.238l-4.681,1.563c-0.056-0.213-0.104-0.428-0.143-0.647
		c0.225-0.037,0.381-0.246,0.351-0.476c-0.03-0.229-0.234-0.391-0.46-0.368c-0.017-0.217-0.028-0.435-0.028-0.657
		c0-0.223,0.011-0.444,0.028-0.663c0.226,0.023,0.43-0.139,0.46-0.368C24.313,30.561,24.156,30.351,23.932,30.315z"/>
	<path style="fill:#EF8C3A;" d="M61.83,20.404H2.164C6.807,8.465,18.415,0,32,0C45.58,0,57.187,8.465,61.83,20.404z"/>
	<path style="fill:#249B13;" d="M61.882,43.456C57.28,55.471,45.632,64,32,64C18.362,64,6.72,55.471,2.112,43.456H61.882z"/>
</g>
<g id="Layer_1">
</g>
</svg>
