<?xml version="1.0" encoding="iso-8859-1"?>
<!-- Generator: Adobe Illustrator 22.1.0, SVG Export Plug-In . SVG Version: 6.00 Build 0)  -->
<svg version="1.1" xmlns="http://www.w3.org/2000/svg" xmlns:xlink="http://www.w3.org/1999/xlink" x="0px" y="0px"
	 viewBox="0 0 64 64" style="enable-background:new 0 0 64 64;" xml:space="preserve">
<g id="_x32_9">
	<path style="fill:#D30F22;" d="M32,0C14.327,0,0,14.327,0,32s14.327,32,32,32s32-14.327,32-32S49.673,0,32,0z"/>
	<path style="fill:#FFFFFF;" d="M40.826,41.536c-2.853,4.448-7.896,7.405-13.644,7.405c-8.904,0-16.118-7.094-16.118-15.853
		s7.213-15.827,16.118-15.827c5.736,0,10.77,2.945,13.626,7.378c-2.361-2.583-5.785-4.207-9.597-4.207
		c-7.121,0-12.894,5.654-12.894,12.656c0,7.002,5.773,12.683,12.894,12.683C35.036,45.77,38.468,44.134,40.826,41.536z
		 M49.839,30.577l-3.408-4.888v0.013l-0.132,5.853l-5.456,1.48l5.39,1.916l-0.132,5.377l3.501-4.201l5.311,1.85l-3.065-4.505
		l3.739-4.479L49.839,30.577z"/>
</g>
<g id="Layer_1">
</g>
</svg>
